<?xml version="1.0" encoding="UTF-8" standalone="no"?> <svg xmlns:dc="http://purl.org/dc/elements/1.1/" xmlns:cc="http://web.resource.org/cc/" xmlns:rdf="http://www.w3.org/1999/02/22-rdf-syntax-ns#" xmlns:svg="http://www.w3.org/2000/svg" xmlns="http://www.w3.org/2000/svg" xmlns:sodipodi="http://sodipodi.sourceforge.net/DTD/sodipodi-0.dtd" xmlns:inkscape="http://www.inkscape.org/namespaces/inkscape" version="1.0" width="751" height="601" viewBox="0 0 750 599.99902" id="Layer_1" xml:space="preserve" sodipodi:version="0.32" inkscape:version="0.45" sodipodi:docname="I-195 (NJ).svg" sodipodi:docbase="C:\Documents and Settings\ltljltlj\Desktop" inkscape:output_extension="org.inkscape.output.svg.inkscape" sodipodi:modified="true"><metadata id="metadata36"></metadata><defs id="defs62"> </defs> <g transform="matrix(0.9986685,0,0,0.9986701,0.4993342,0.3989715)" id="g5" style="fill:#ffffff;fill-opacity:1;stroke:#000000;stroke-width:0.99999899;stroke-miterlimit:4;stroke-dasharray:none;stroke-opacity:1"> <path id="path7" style="fill:#ffffff;fill-opacity:1;stroke:#000000;stroke-width:0.99999899;stroke-miterlimit:4;stroke-dasharray:none;stroke-opacity:1" d="M 38.915039,0 C 92.236328,15.525391 148.625,23.849609 206.95801,23.849609 C 265.29053,23.849609 321.6792,15.525391 375,0.0004883 C 428.32031,15.525391 484.70898,23.849609 543.04199,23.849609 C 601.375,23.849609 657.76367,15.525391 711.08398,0 C 736.06445,54.121094 750,114.3877 750,177.90918 C 750,395.71777 586.16016,575.25391 375,599.99902 C 163.83887,575.25391 0,395.71777 0,177.90918 C 0,114.3877 13.935059,54.121094 38.915039,0 z "></path> <path id="path9" style="fill:#ffffff;fill-opacity:1;stroke:#000000;stroke-width:0.99999899;stroke-linecap:round;stroke-linejoin:round;stroke-miterlimit:4;stroke-dasharray:none;stroke-opacity:1" d="M 38.915039,0 C 92.236328,15.525391 148.625,23.849609 206.95801,23.849609 C 265.29053,23.849609 321.6792,15.525391 375,0.0004883 C 428.32031,15.525391 484.70898,23.849609 543.04199,23.849609 C 601.375,23.849609 657.76367,15.525391 711.08398,0 C 736.06445,54.121094 750,114.3877 750,177.90918 C 750,395.71777 586.16016,575.25391 375,599.99902 C 163.83887,575.25391 0,395.71777 0,177.90918 C 0,114.3877 13.935059,54.121094 38.915039,0 z "></path> </g><g transform="matrix(1.0056032,0,0,1.0101352,-2.1013652,-3.7018951)" id="g11" style="fill:#003f87;fill-opacity:1"> <path id="path13" style="fill:#003f87;fill-opacity:1" d="M 15,177.90918 C 15,165.12744 15.584961,152.48242 16.729004,139.99902 L 733.27051,139.99902 C 734.41504,152.48242 735,165.12744 735,177.90918 C 735,387.42285 577.85547,560.22852 375,584.89062 C 172.14453,560.22852 15,387.42285 15,177.90918 z "></path> </g><g transform="matrix(1.00604,0,0,1.0270827,-2.2645005,-3.1522955)" id="g15" style="fill:#af1e2d;fill-opacity:1"> <path id="path17" style="fill:#af1e2d;fill-opacity:1" d="M 47.37793,17.942871 C 98.270019,31.578125 151.76562,38.849121 206.95996,38.849121 C 265.2207,38.849121 321.58936,30.748047 375,15.611328 C 428.41113,30.748047 484.7793,38.849121 543.04004,38.849121 C 598.23438,38.849121 651.73047,31.578613 702.62109,17.942871 C 716.88281,51.567383 726.78516,87.489258 731.61719,124.99902 L 18.381836,124.99902 C 23.214844,87.489258 33.116211,51.567383 47.37793,17.942871 z "></path> </g> <path style="font-size:93.28099823px;font-style:normal;font-variant:normal;font-weight:normal;font-stretch:normal;text-align:center;line-height:125%;writing-mode:lr-tb;text-anchor:middle;fill:#ffffff;fill-opacity:1;font-family:Roadgeek 2005 Series C" d="M 183.53777,112.74918 L 183.53777,50.332876 L 192.29397,50.332876 L 192.29397,112.74918 L 183.53777,112.74918 z M 234.32652,112.74918 L 215.04301,70.921299 L 215.04301,112.74918 L 206.09918,112.74918 L 206.09918,50.332876 L 215.04301,50.332876 L 232.18297,87.782657 L 232.18297,50.332876 L 241.1268,50.332876 L 241.1268,112.74918 L 234.32652,112.74918 z M 270.23545,58.625673 L 270.23545,112.74918 L 261.20065,112.74918 L 261.20065,58.625673 L 249.83466,58.625673 L 249.83466,50.332876 L 281.60144,50.332876 L 281.60144,58.625673 L 270.23545,58.625673 z M 290.15862,112.74918 L 290.15862,50.332876 L 319.50325,50.332876 L 319.50325,59.09191 L 299.10244,59.09191 L 299.10244,74.833157 L 312.05195,74.833157 L 312.05195,83.404561 L 299.10244,83.404561 L 299.10244,103.99298 L 321.9254,103.99298 L 321.9254,112.74918 L 290.15862,112.74918 z M 358.17549,112.74918 L 349.88269,83.404561 L 341.31412,83.404561 L 341.31412,112.74918 L 332.3703,112.74918 L 332.3703,50.332876 L 351.0028,50.332876 C 353.42494,50.332938 355.64525,50.736632 357.66375,51.543959 C 359.6822,52.351409 361.42112,53.469623 362.88052,54.898605 C 364.33984,56.327702 365.45758,58.082256 366.23374,60.16227 C 367.00981,62.24239 367.39787,64.524779 367.39791,67.009442 C 367.39787,70.735604 366.65256,73.903088 365.16196,76.511902 C 363.67129,79.120788 361.43533,80.983372 358.4541,82.099661 L 367.39791,112.74918 L 358.17549,112.74918 z M 358.64173,67.009442 C 358.6417,64.587322 357.89637,62.662194 356.40576,61.234051 C 354.9151,59.806011 352.9587,59.091964 350.53656,59.09191 L 341.31412,59.09191 L 341.31412,74.833157 L 350.53656,74.833157 C 353.14444,74.833195 355.14727,74.165584 356.54506,72.830321 C 357.9428,71.495138 358.6417,69.554847 358.64173,67.009442 L 358.64173,67.009442 z M 409.6238,95.700188 C 409.62376,98.247459 409.17363,100.62319 408.27342,102.82739 C 407.37312,105.03161 406.13124,106.94111 404.54777,108.55587 C 402.96423,110.17066 401.13196,111.45945 399.05098,112.42224 C 396.96994,113.38505 394.71835,113.86645 392.29621,113.86645 C 389.56319,113.86645 387.11023,113.33861 384.93731,112.28294 C 382.76436,111.22727 380.93257,109.79918 379.44194,107.99867 C 377.9513,106.19815 376.80229,104.11761 375.9949,101.75704 C 375.18751,99.396471 374.78382,96.943507 374.78382,94.398132 L 383.54002,94.398132 C 383.54001,95.702101 383.71058,96.990416 384.05174,98.26308 C 384.39288,99.535774 384.92071,100.68479 385.63525,101.71013 C 386.34975,102.73548 387.25049,103.5585 388.33744,104.17919 C 389.42436,104.7999 390.74394,105.11026 392.29621,105.11025 C 393.47695,105.11026 394.61079,104.86198 395.69776,104.3654 C 396.78467,103.86886 397.7162,103.18561 398.49235,102.31567 C 399.26844,101.44574 399.88914,100.4365 400.35446,99.287953 C 400.81972,98.139428 401.05236,96.943507 401.05239,95.700188 C 401.05236,93.899691 400.67995,92.301024 399.93513,90.904183 C 399.19025,89.507385 397.8863,88.094455 396.02327,86.665389 C 395.71243,86.35459 395.58828,86.18354 395.65086,86.152242 C 395.71337,86.120997 395.52716,85.950421 395.09222,85.640517 C 394.65723,85.330665 393.74087,84.725124 392.34312,83.823891 C 390.94533,82.922716 388.66293,81.386119 385.49595,79.214097 C 382.95057,77.474265 381.04108,75.439684 379.76746,73.110348 C 378.49382,70.781091 377.85701,68.219622 377.85702,65.425936 C 377.85701,63.189556 378.2607,61.093379 379.0681,59.137398 C 379.87548,57.181525 381.00886,55.458243 382.46824,53.967548 C 383.92759,52.476971 385.62007,51.312324 387.54568,50.473601 C 389.47127,49.635002 391.55134,49.215671 393.7859,49.215607 C 396.0223,49.215671 398.08768,49.619366 399.98204,50.426692 C 401.87634,51.234143 403.52192,52.352357 404.91877,53.781337 C 406.31556,55.210436 407.4333,56.918555 408.272,58.9057 C 409.11062,60.892952 409.56122,63.066363 409.6238,65.425936 L 401.05239,65.425936 C 400.92917,63.2521 400.18433,61.513183 398.81786,60.209179 C 397.45135,58.90528 395.77402,58.253304 393.7859,58.25325 C 391.73707,58.253304 389.99863,58.936552 388.57055,60.302995 C 387.14245,61.669543 386.4284,63.377188 386.42842,65.425936 C 386.4284,66.978216 386.83209,68.282167 387.63951,69.337794 C 388.44687,70.393507 389.99911,71.573317 392.29621,72.877229 C 398.32127,76.355103 402.71547,79.895009 405.47882,83.496955 C 408.24211,87.09896 409.62376,91.166701 409.6238,95.700188 L 409.6238,95.700188 z M 435.62513,58.625673 L 435.62513,112.74918 L 426.59034,112.74918 L 426.59034,58.625673 L 415.22435,58.625673 L 415.22435,50.332876 L 446.99113,50.332876 L 446.99113,58.625673 L 435.62513,58.625673 z M 481.6321,112.74918 L 477.25401,95.700188 L 463.83827,95.700188 L 459.74164,112.74918 L 450.70398,112.74918 L 466.26044,50.332876 L 475.01948,50.332876 L 490.57593,112.74918 L 481.6321,112.74918 z M 470.45374,68.965371 L 466.07565,86.943996 L 475.01948,86.943996 L 470.45374,68.965371 z M 514.77201,58.625673 L 514.77201,112.74918 L 505.73722,112.74918 L 505.73722,58.625673 L 494.37123,58.625673 L 494.37123,50.332876 L 526.13801,50.332876 L 526.13801,58.625673 L 514.77201,58.625673 z M 534.6952,112.74918 L 534.6952,50.332876 L 564.03982,50.332876 L 564.03982,59.09191 L 543.63903,59.09191 L 543.63903,74.833157 L 556.58852,74.833157 L 556.58852,83.404561 L 543.63903,83.404561 L 543.63903,103.99298 L 566.46199,103.99298 L 566.46199,112.74918 L 534.6952,112.74918 z " id="text7023"></path> <path style="font-size:372.63015747px;font-style:normal;font-variant:normal;font-weight:normal;font-stretch:normal;text-align:center;line-height:125%;writing-mode:lr-tb;text-anchor:middle;fill:#ffffff;fill-opacity:1;font-family:Roadgeek 2005 Series C" d="M 125.40121,449.79977 C 125.89398,441.35435 126.45119,434.02525 127.07286,427.81246 C 127.6945,421.59971 128.43935,416.01049 129.30742,411.04478 C 130.17544,406.07915 131.29367,401.29733 132.66209,396.69929 C 134.03047,392.10137 135.7078,387.06936 137.6941,381.60327 C 147.88317,355.52411 161.29805,334.78202 177.93879,319.37694 C 179.43221,318.13376 180.98636,316.8298 182.60122,315.46506 C 184.21593,314.10058 186.2022,312.54833 188.56002,310.80832 C 190.91769,309.06858 193.7739,306.95722 197.12865,304.47424 C 200.48324,301.99155 204.6434,299.01026 209.60917,295.53034 C 217.8119,289.81429 223.34047,284.96992 226.1949,280.99722 C 229.04909,277.02486 230.47625,271.9341 230.47637,265.72493 C 230.47625,261.00205 229.54566,256.52916 227.6846,252.30625 C 225.8233,248.08373 223.34047,244.35758 220.23609,241.1278 C 217.13149,237.89842 213.40534,235.35115 209.05764,233.48597 C 204.70974,231.62121 200.1743,230.68873 195.45132,230.68851 C 190.48556,230.68873 185.89137,231.62121 181.66873,233.48597 C 177.44595,235.35115 173.78045,237.89842 170.67223,241.1278 C 167.56389,244.35758 165.07916,248.08373 163.21804,252.30625 C 161.3568,256.52916 160.42622,261.00205 160.42627,265.72493 L 125.40121,265.72493 C 125.6438,256.03638 127.56752,246.90675 131.17239,238.33603 C 134.77721,229.76572 139.68413,222.31153 145.89314,215.97344 C 152.10209,209.63581 159.42929,204.66636 167.87477,201.06505 C 176.32014,197.46424 185.51232,195.66371 195.45132,195.66346 C 205.13997,195.66371 214.1464,197.52679 222.47064,201.25268 C 230.79466,204.97908 238.12376,210.00919 244.45796,216.34302 C 250.7919,222.67733 255.75946,230.06897 259.36066,238.51797 C 262.96157,246.9674 264.7621,256.03638 264.76225,265.72493 C 264.7621,285.59537 257.68129,301.98966 243.51979,314.90784 C 242.27634,315.90111 240.97238,316.8317 239.6079,317.69961 C 238.24316,318.56778 236.9392,319.62346 235.69601,320.86665 L 227.1217,327.20072 L 218.18349,333.1709 L 208.49474,340.24414 C 204.5221,343.22365 200.61022,346.76406 196.75907,350.86538 C 192.90775,354.96689 189.1816,359.43978 185.58062,364.28406 C 181.97949,369.12852 178.81245,374.22117 176.07951,379.56204 C 173.34643,384.90304 171.10809,390.18143 169.36448,395.39723 C 167.87851,398.62686 166.82473,401.54561 166.20312,404.15349 C 165.58141,406.76146 164.77402,410.30187 163.78094,414.77472 L 264.76225,414.77472 L 264.76225,449.79977 L 125.40121,449.79977 z M 433.61029,376.395 C 433.61014,388.32026 431.49878,399.68443 427.27622,410.48757 C 423.05336,421.29078 417.21585,430.29721 409.76369,437.50689 C 398.83151,448.68155 383.67675,454.26888 364.29935,454.26888 C 351.88131,454.26888 341.26198,452.03432 332.44134,447.56522 C 323.62059,443.09612 316.10576,436.51377 309.89681,427.81814 C 304.93111,420.85865 301.08177,412.90789 298.34878,403.96586 C 295.61574,395.02391 294.24924,385.83363 294.24925,376.395 C 294.24924,363.96953 296.17485,352.47837 300.02611,341.92148 C 303.87733,331.3648 309.77548,322.11009 317.72059,314.1573 C 304.30945,299.50303 297.60391,282.2407 297.60392,262.37026 C 297.60391,252.68171 299.2187,243.73782 302.4483,235.53857 C 305.67785,227.33975 310.2114,220.32148 316.04893,214.48374 C 321.8864,208.64647 328.90278,204.05039 337.09808,200.69547 C 345.29327,197.34105 354.36035,195.66371 364.29935,195.66346 C 373.98801,195.66371 382.80681,197.34105 390.75578,200.69547 C 398.70453,204.05039 405.59771,208.64647 411.43534,214.48374 C 417.27271,220.32148 421.80625,227.33975 425.03598,235.53857 C 428.26541,243.73782 429.8802,252.68171 429.88035,262.37026 C 429.8802,272.55196 428.20476,282.05307 424.85403,290.8736 C 421.50301,299.69446 416.4729,307.45568 409.76369,314.1573 C 417.70863,321.60973 423.66933,330.73936 427.6458,341.54621 C 431.62198,352.35328 433.61014,363.96953 433.61029,376.395 L 433.61029,376.395 z M 394.8553,262.37026 C 394.85519,253.17449 391.93643,245.59521 386.09904,239.63241 C 380.26143,233.67003 372.99487,230.68873 364.29935,230.68851 C 355.11089,230.68873 347.5354,233.67003 341.57287,239.63241 C 335.61022,245.59521 332.62892,253.17449 332.62898,262.37026 C 332.62892,272.55196 335.61022,280.62402 341.57287,286.58645 C 347.5354,292.5492 355.11089,295.5305 364.29935,295.53034 C 372.99487,295.5305 380.26143,292.5492 386.09904,286.58645 C 391.93643,280.62402 394.85519,272.55196 394.8553,262.37026 L 394.8553,262.37026 z M 399.32441,376.395 C 399.32429,362.72622 396.09471,351.85671 389.63566,343.78645 C 383.17639,335.7164 374.73096,331.68132 364.29935,331.6812 C 353.86758,331.68132 345.42215,335.7164 338.96305,343.78645 C 332.50383,351.85671 329.27425,362.72622 329.2743,376.395 C 329.27425,389.06321 332.50383,399.37171 338.96305,407.32053 C 345.42215,415.26943 353.86758,419.24386 364.29935,419.24383 C 374.73096,419.24386 383.17639,415.26943 389.63566,407.32053 C 396.09471,399.37171 399.32429,389.06321 399.32441,376.395 L 399.32441,376.395 z M 617.36672,324.59659 C 617.36655,343.72401 616.31087,359.9951 614.19968,373.40991 C 612.08816,386.82487 608.42077,399.4949 603.1975,411.42005 C 596.98836,426.32467 589.22713,437.19228 579.9138,444.02292 C 570.60019,450.85356 558.86264,454.26888 544.70111,454.26888 C 529.79643,454.26888 517.68551,450.85356 508.36831,444.02292 C 499.05098,437.19228 491.28786,426.32467 485.07892,411.42005 C 479.86304,399.24473 476.19944,386.51215 474.08811,373.22228 C 471.97672,359.93256 470.92104,343.72401 470.92107,324.59659 C 470.92104,305.71959 471.97672,289.51105 474.08811,275.9709 C 476.19944,262.4311 479.86304,249.69852 485.07892,237.77312 C 491.53804,222.86875 499.42625,212.12433 508.74357,205.53984 C 518.06077,198.95584 530.04661,195.66371 544.70111,195.66346 C 559.10524,195.66371 570.90344,198.95584 580.09574,205.53984 C 589.28778,212.12433 596.98836,223.11893 603.1975,238.52366 C 605.68396,244.73285 607.85976,250.94183 609.72489,257.15062 C 611.5897,263.35979 613.08129,269.8796 614.19968,276.71006 C 615.31774,283.54087 616.12513,290.86997 616.62187,298.69738 C 617.11827,306.52509 617.36655,315.15815 617.36672,324.59659 L 617.36672,324.59659 z M 583.08083,324.59659 C 583.0807,317.6372 582.89496,311.30123 582.52362,305.58867 C 582.15201,299.8764 581.65544,294.59801 581.03392,289.75348 C 580.41213,284.90927 579.60473,280.25254 578.61173,275.78326 C 577.61846,271.31434 576.50024,266.84334 575.25706,262.37026 C 572.02735,251.18822 567.99038,243.11238 563.14612,238.14271 C 558.30164,233.17346 552.15331,230.68873 544.70111,230.68851 C 529.29607,230.68873 518.73929,240.99912 513.03073,261.61973 C 510.04368,271.05847 507.99298,280.55958 506.8786,290.12307 C 505.76411,299.68688 505.2069,311.42443 505.20695,325.33575 C 505.2069,332.04521 505.39264,338.19544 505.76417,343.78645 C 506.13559,349.37767 506.63216,354.59541 507.25387,359.43969 C 507.87547,364.28415 508.68286,369.06597 509.67606,373.78518 C 510.66913,378.50453 511.78735,383.34701 513.03073,388.31261 C 518.73929,408.93346 529.29607,419.24386 544.70111,419.24383 C 552.15331,419.24386 558.30164,416.75913 563.14612,411.78963 C 567.99038,406.82021 572.02735,398.99455 575.25706,388.31261 C 576.74284,383.34701 577.98426,378.56708 578.98131,373.97281 C 579.9781,369.3787 580.7855,364.59687 581.4035,359.62732 C 582.02123,354.65796 582.45525,349.37767 582.70557,343.78645 C 582.95561,338.19544 583.0807,331.79883 583.08083,324.59659 L 583.08083,324.59659 z " id="text7029"></path> <path transform="scale(1.0000209,0.9999791)" style="font-size:55.89564133px;font-style:normal;font-variant:normal;font-weight:normal;font-stretch:normal;text-align:center;line-height:125%;writing-mode:lr-tb;text-anchor:middle;fill:#ffffff;fill-opacity:1;font-family:Roadgeek 2005 Series D" d="M 250.99507,187.65323 L 236.68682,162.27605 L 236.68682,187.65323 L 230.76087,187.65323 L 230.76087,150.2024 L 236.68682,150.2024 L 250.32469,174.12624 L 250.32469,150.2024 L 256.25063,150.2024 L 256.25063,187.65323 L 250.99507,187.65323 z M 265.14979,187.65323 L 265.14979,150.2024 L 287.22966,150.2024 L 287.22966,156.12835 L 271.07574,156.12835 L 271.07574,165.29531 L 281.9758,165.29531 L 281.9758,171.33214 L 271.07574,171.33214 L 271.07574,181.6164 L 288.40325,181.6164 L 288.40325,187.65323 L 265.14979,187.65323 z M 319.16223,187.65323 L 313.90837,187.65323 L 307.98242,163.61851 L 302.22534,187.65323 L 296.97148,187.65323 L 291.43787,150.2024 L 297.47469,150.2024 L 300.38138,169.93509 L 305.13203,150.2024 L 310.8891,150.2024 L 315.75234,169.93509 L 318.65902,150.2024 L 324.69584,150.2024 L 319.16223,187.65323 z M 363.17868,176.36254 C 363.17866,178.15137 362.88043,179.77244 362.28399,181.22578 C 361.68751,182.67912 360.84911,183.93658 359.76879,184.99815 C 358.68843,186.05973 357.38435,186.87937 355.85654,187.45706 C 354.32869,188.03476 352.65161,188.32361 350.82528,188.32361 C 349.11151,188.32361 347.44409,187.98842 345.82302,187.31804 C 344.20194,186.64766 342.75798,185.71601 341.49115,184.52309 C 341.08061,184.1137 340.72638,183.70402 340.42843,183.29406 C 340.13048,182.8841 339.73929,182.28793 339.25484,181.50553 L 344.67758,178.98947 C 345.57141,180.1824 346.50278,181.03018 347.47168,181.53282 C 348.44056,182.03547 349.55843,182.28679 350.82528,182.28678 C 352.8745,182.28679 354.43957,181.66275 355.52049,180.41467 C 356.60138,179.1666 357.14184,177.4247 357.14186,175.18895 L 357.14186,150.2024 L 363.17868,150.2024 L 363.17868,176.36254 L 363.17868,176.36254 z M 372.13755,187.65323 L 372.13755,150.2024 L 394.21742,150.2024 L 394.21742,156.12835 L 378.0635,156.12835 L 378.0635,165.29531 L 388.96356,165.29531 L 388.96356,171.33214 L 378.0635,171.33214 L 378.0635,181.6164 L 395.39101,181.6164 L 395.39101,187.65323 L 372.13755,187.65323 z M 420.78354,187.65323 L 414.74672,171.33214 L 407.64889,171.33214 L 407.64889,187.65323 L 401.72294,187.65323 L 401.72294,150.2024 L 414.07634,150.2024 C 415.52966,150.20244 416.77802,150.2863 417.82142,150.454 C 418.86478,150.62178 419.85215,150.92967 420.78354,151.37769 C 421.60344,151.78712 422.35825,152.31791 423.04799,152.97006 C 423.73768,153.62228 424.33385,154.36743 424.83652,155.20551 C 425.33914,156.04366 425.73033,156.93806 426.01011,157.88873 C 426.28983,158.83946 426.42971,159.78049 426.42974,160.71183 C 426.42971,161.71828 426.28983,162.69655 426.01011,163.64666 C 425.73033,164.59681 425.33914,165.49093 424.83652,166.32903 C 424.33385,167.16716 423.7192,167.9217 422.99255,168.59262 C 422.26586,169.26359 421.4738,169.78556 420.61637,170.15855 L 427.2127,187.65323 L 420.78354,187.65323 z M 420.50379,160.71183 C 420.50377,159.92946 420.29907,159.18431 419.8897,158.47638 C 419.48029,157.7685 418.90259,157.20929 418.15661,156.79873 C 417.67214,156.53834 417.22494,156.3615 416.815,156.26822 C 416.40502,156.175 415.71559,156.12838 414.74672,156.12835 L 407.64889,156.12835 L 407.64889,165.29531 L 414.74672,165.29531 C 415.6792,165.29534 416.35953,165.25809 416.78771,165.18358 C 417.21584,165.10912 417.67214,164.9411 418.15661,164.67952 C 418.90259,164.27015 419.48029,163.70212 419.8897,162.97543 C 420.29907,162.24878 420.50377,161.49425 420.50379,160.71183 L 420.50379,160.71183 z M 456.35457,176.86575 C 456.35454,178.57952 456.03755,180.16307 455.40359,181.6164 C 454.76957,183.06975 453.85668,184.33659 452.66492,185.41693 C 451.62095,186.34829 450.40045,187.06558 449.00342,187.56879 C 447.60636,188.072 446.10668,188.32361 444.50438,188.32361 C 441.26221,188.32361 438.49512,187.45735 436.2031,185.72482 C 433.91107,183.9923 432.13164,181.69147 430.8648,178.8223 L 436.511,176.75317 C 437.29339,178.54199 438.37401,179.91147 439.75287,180.86159 C 441.13172,181.81172 442.71555,182.28679 444.50438,182.28678 C 446.25565,182.28679 447.66236,181.75572 448.72453,180.69357 C 449.78665,179.63143 450.31772,178.31797 450.31774,176.75317 C 450.31772,175.52387 449.99163,174.51802 449.33947,173.73561 C 448.68726,172.95323 447.83948,172.29167 446.79612,171.75091 C 445.75272,171.21019 444.60671,170.73484 443.35808,170.32486 C 442.10942,169.91492 440.87044,169.46772 439.64114,168.98325 C 439.08163,168.76038 438.3922,168.44395 437.57286,168.03397 C 436.7535,167.62403 435.96173,167.05572 435.19754,166.32903 C 434.43333,165.60238 433.78115,164.69859 433.24098,163.61766 C 432.70081,162.53678 432.43073,161.21393 432.43073,159.64912 C 432.43073,157.82394 432.72867,156.26854 433.32457,154.9829 C 433.92046,153.69733 434.73099,152.65395 435.75619,151.85276 C 436.78136,151.05164 438.01124,150.46456 439.44583,150.09152 C 440.8804,149.71856 442.4358,149.53206 444.11204,149.53202 C 446.75829,149.53206 448.96645,150.22148 450.73652,151.6003 C 452.50655,152.97919 453.85725,154.84221 454.78864,157.18935 L 449.53478,158.75528 C 449.23681,158.15941 448.84562,157.61925 448.36119,157.13477 C 447.95064,156.72427 447.38204,156.35127 446.65539,156.01576 C 445.9287,155.68032 445.04396,155.49439 444.00117,155.45797 C 443.33021,155.42047 442.6314,155.46681 441.90474,155.59699 C 441.17806,155.72723 440.53526,155.96007 439.97633,156.29551 C 439.41739,156.63102 438.97019,157.0876 438.63472,157.66527 C 438.29924,158.243 438.16903,158.96057 438.24409,159.81799 C 438.318,160.97228 438.82093,161.85702 439.75287,162.47222 C 440.6848,163.08746 441.82143,163.61854 443.16277,164.06543 C 444.50408,164.51237 445.94804,164.96868 447.49465,165.43434 C 449.04122,165.90004 450.46641,166.5707 451.77023,167.44633 C 453.07401,168.32199 454.16401,169.49586 455.04025,170.96795 C 455.91644,172.44007 456.35454,174.406 456.35457,176.86575 L 456.35457,176.86575 z M 462.64045,187.65323 L 462.64045,150.2024 L 484.72032,150.2024 L 484.72032,156.12835 L 468.5664,156.12835 L 468.5664,165.29531 L 479.46646,165.29531 L 479.46646,171.33214 L 468.5664,171.33214 L 468.5664,181.6164 L 485.89391,181.6164 L 485.89391,187.65323 L 462.64045,187.65323 z M 508.65951,171.33214 L 508.65951,187.65323 L 502.73527,187.65323 L 502.73527,171.33214 L 489.59891,150.2024 L 496.69844,150.2024 L 505.64195,164.67952 L 514.69633,150.2024 L 521.68329,150.2024 L 508.65951,171.33214 z " id="text2177"></path> </svg> 