<?xml version="1.0" encoding="UTF-8"?> <svg xmlns="http://www.w3.org/2000/svg" overflow="visible" version="1.1" viewBox="0 0 751 601" xml:space="preserve"> <g clip-rule="evenodd" fill-rule="evenodd"> <path d="m375.5 600.5c-211.16-24.745-375-204.28-375-422.09 0-63.522 13.935-123.79 38.916-177.91 53.321 15.524 109.71 23.849 168.04 23.849s114.72-8.3242 168.04-23.849c53.321 15.524 109.71 23.849 168.04 23.849s114.72-8.3242 168.04-23.849c24.98 54.121 38.916 114.39 38.916 177.91 0 217.81-163.84 397.34-375 422.09z" fill="#fff"></path> <path d="m375.5 600.5c-211.16-24.745-375-204.28-375-422.09 0-63.522 13.935-123.79 38.916-177.91 53.321 15.524 109.71 23.849 168.04 23.849s114.72-8.3242 168.04-23.849c53.321 15.524 109.71 23.849 168.04 23.849s114.72-8.3242 168.04-23.849c24.98 54.121 38.916 114.39 38.916 177.91 0 217.81-163.84 397.34-375 422.09z" fill="none" stroke="#000" stroke-linecap="round" stroke-linejoin="round" stroke-miterlimit="3.8637"></path> </g> <path d="m732.12 125.5h-713.24c4.8325-37.521 14.735-73.442 28.995-107.06 50.908 13.641 104.41 20.909 159.58 20.909 58.24 0 114.61-8.0986 168.04-23.241 53.428 15.143 109.8 23.241 168.04 23.241 55.175 0 108.67-7.2686 159.58-20.909 14.261 33.618 24.164 69.539 28.996 107.06z" fill="#B01C2E"></path> <path d="m15.5 178.41c0-12.783 0.58447-25.428 1.728-37.91h716.54c1.1436 12.482 1.7285 25.127 1.7285 37.91 0 209.51-157.15 382.33-360 406.98-202.85-24.652-360-197.47-360-406.98z" fill="#003882"></path> <rect x="113.71" y="49.572" width="10.72" height="59.855" clip-rule="evenodd" fill="#fff" fill-rule="evenodd"></rect> <polygon points="178.96 109.43 150.46 68.243 150.46 109.43 139.92 109.43 139.92 49.572 150.46 49.572 177.89 89.06 177.89 49.572 188.25 49.572 188.25 109.43" clip-rule="evenodd" fill="#fff" fill-rule="evenodd"></polygon> <polygon points="225.98 60.114 225.98 109.43 215.53 109.43 215.53 60.114 198.28 60.114 198.28 49.572 243.22 49.572 243.22 60.114" clip-rule="evenodd" fill="#fff" fill-rule="evenodd"></polygon> <polygon points="253.42 109.43 253.42 49.572 297.1 49.572 297.1 60.293 264.31 60.293 264.31 71.37 282.18 71.37 282.18 82.358 264.31 82.358 264.31 98.708 298.17 98.708 298.17 109.43" clip-rule="evenodd" fill="#fff" fill-rule="evenodd"></polygon> <path d="m346.52 109.43-9.6489-23.495h-15.992v23.495h-10.72v-59.855h27.516c2.2041 0 4.0801 0.17871 5.6284 0.53613 1.5488 0.35742 3.0972 1.0127 4.6455 1.9648 2.8589 1.5488 5.1221 3.7227 6.79 6.5215 1.6675 2.7998 2.501 5.8965 2.501 9.291 0 3.3955-0.84863 6.4775-2.5459 9.2471-1.6978 2.7695-4.0947 4.9883-7.1919 6.6543l10.989 25.641h-11.971zm0-41.542c0-2.3223-0.7749-4.1689-2.3232-5.5381-1.5488-1.3701-3.6631-2.0547-6.3433-2.0547h-16.974v14.919h16.974c2.6802 0 4.7944-0.66992 6.3433-2.0098 1.5483-1.3408 2.3232-3.1123 2.3232-5.3164z" clip-rule="evenodd" fill="#fff" fill-rule="evenodd"></path> <path d="m415.31 92.007c0 6.0752-2.7988 10.751-8.3984 14.026-2.084 1.3105-4.4365 2.3076-7.0566 2.9932-2.6211 0.68457-5.3311 1.0273-8.1299 1.0273-5.1816 0-9.7529-0.93848-13.714-2.8154-3.96-1.875-7.6377-4.7783-11.033-8.709l8.5757-6.7012c2.2637 2.6211 4.6465 4.5273 7.1475 5.7178 2.501 1.1914 5.4502 1.7871 8.8447 1.7871 3.8115 0 6.9385-0.72949 9.3809-2.1885 2.4414-1.46 3.6621-3.3203 3.6621-5.584 0-2.3828-1.25-4.1992-3.752-5.4492-1.0723-0.41699-2.1895-0.83398-3.3496-1.251-1.1621-0.41699-2.4277-0.77441-3.7969-1.0732l-2.7695-0.80273-2.7695-0.62598-2.8594-0.89258c-3.0967-0.71484-5.5234-1.5039-7.2812-2.3682-1.7559-0.86328-3.2603-2.0098-4.5112-3.4395-1.25-1.3691-2.1885-2.918-2.814-4.6455-0.62549-1.7266-0.93799-3.543-0.93799-5.4492 0-2.501 0.50635-4.7646 1.5186-6.79 1.0127-2.0244 2.4121-3.7666 4.1987-5.2256 1.7871-1.459 3.9463-2.5908 6.4775-3.3955 2.5312-0.80371 5.3145-1.2061 8.3525-1.2061 4.4678 0 8.5322 0.74414 12.194 2.2334 3.6631 1.4893 7.0137 3.8125 10.051 6.9688l-7.9512 7.1475c-3.752-3.9316-8.5166-5.8965-14.294-5.8965-3.0381 0-5.4053 0.55078-7.1025 1.6523s-2.5459 2.6055-2.5459 4.5117c0 0.83301 0.14941 1.5635 0.44629 2.1885 0.29883 0.62598 0.80469 1.1914 1.5195 1.6973 0.71484 0.50684 1.6816 0.96777 2.9033 1.3848 1.2207 0.41699 2.7549 0.83398 4.6006 1.251 3.9902 0.83398 7.3262 1.668 10.006 2.502 2.6797 0.83301 4.8535 1.667 6.5215 2.501 2.6797 1.3701 4.7949 3.3799 6.3438 6.0293 1.5479 2.6514 2.3223 5.6143 2.3223 8.8896z" clip-rule="evenodd" fill="#fff" fill-rule="evenodd"></path> <polygon points="449.55 60.114 449.55 109.43 439.09 109.43 439.09 60.114 421.85 60.114 421.85 49.572 466.79 49.572 466.79 60.114" clip-rule="evenodd" fill="#fff" fill-rule="evenodd"></polygon> <path d="m521.12 109.43-5.8965-14.115h-26.086l-5.8066 14.115h-11.793l25.193-59.855h10.899l25.015 59.855h-11.525zm-18.939-44.937-8.3975 20.19h16.796l-8.3984-20.19z" clip-rule="evenodd" fill="#fff" fill-rule="evenodd"></path> <polygon points="565.09 60.114 565.09 109.43 554.64 109.43 554.64 60.114 537.4 60.114 537.4 49.572 582.33 49.572 582.33 60.114" clip-rule="evenodd" fill="#fff" fill-rule="evenodd"></polygon> <polygon points="592.53 109.43 592.53 49.572 636.21 49.572 636.21 60.293 603.43 60.293 603.43 71.37 621.29 71.37 621.29 82.358 603.43 82.358 603.43 98.708 637.29 98.708 637.29 109.43" clip-rule="evenodd" fill="#fff" fill-rule="evenodd"></polygon> <g clip-rule="evenodd" fill="#fff" fill-rule="evenodd"> <path d="m147.66 438.18c0.48047-8.166 1.021-15.25 1.6211-21.254 0.60059-6.0039 1.3208-11.407 2.1616-16.21 0.84033-4.8037 1.9209-9.4268 3.2417-13.869 1.3208-4.4434 2.9419-9.3057 4.8633-14.59 9.8462-25.216 22.814-45.269 38.905-60.158 1.4409-1.2002 2.9419-2.4619 4.5029-3.7822 1.561-1.3213 3.4824-2.8223 5.7642-4.5029 2.2812-1.6807 5.043-3.7227 8.2847-6.124 3.2422-2.4014 7.2646-5.2842 12.068-8.6455 7.9248-5.5234 13.268-10.206 16.03-14.049 2.7622-3.8428 4.1426-8.7656 4.1426-14.77 0-4.5635-0.90039-8.8857-2.7017-12.969-1.8008-4.082-4.2026-7.6846-7.2046-10.807s-6.604-5.583-10.807-7.3848c-4.2026-1.8008-8.5854-2.7012-13.149-2.7012-4.8027 0-9.2456 0.90039-13.328 2.7012-4.0825 1.8018-7.625 4.2627-10.627 7.3848-3.0015 3.1221-5.4033 6.7246-7.2046 10.807-1.8013 4.083-2.7017 8.4053-2.7017 12.969h-33.862c0.24072-9.3662 2.1016-18.191 5.5835-26.477 3.4824-8.2861 8.2256-15.49 14.229-21.614 6.0034-6.124 13.088-10.927 21.253-14.409 8.165-3.4824 17.051-5.2236 26.657-5.2236 9.3662 0 18.072 1.8018 26.117 5.4033 8.0454 3.6025 15.13 8.4658 21.254 14.59s10.927 13.269 14.409 21.434c3.4824 8.165 5.2231 16.931 5.2231 26.297 0 19.212-6.8442 35.062-20.533 47.551-1.2012 0.95996-2.4619 1.8604-3.7827 2.7012s-2.5815 1.8613-3.7822 3.0625l-8.2856 6.124-8.6455 5.7637-9.3657 6.8438c-3.8428 2.8818-7.625 6.3047-11.347 10.266-3.7227 3.9639-7.3247 8.2861-10.807 12.97-3.4819 4.6826-6.5439 9.6055-9.1855 14.77-2.6421 5.1631-4.8032 10.267-6.4844 15.31-1.4409 3.1221-2.4614 5.9434-3.062 8.4648-0.6001 2.5225-1.3809 5.9443-2.3413 10.267h97.622v33.862h-134.73z"></path> <path d="m446.29 367.21c0 11.527-2.041 22.515-6.124 32.961-4.083 10.447-9.7256 19.152-16.931 26.117-10.566 10.807-25.217 16.21-43.948 16.21-12.008 0-22.274-2.1611-30.8-6.4834-8.5254-4.3232-15.79-10.688-21.794-19.093-4.8032-6.7246-8.5254-14.409-11.167-23.055s-3.9624-17.531-3.9629-26.657c0-12.008 1.8613-23.115 5.584-33.321 3.7222-10.207 9.4258-19.152 17.111-26.837-12.968-14.169-19.452-30.86-19.452-50.072 0-9.3662 1.561-18.012 4.6831-25.937s7.5044-14.709 13.148-20.353c5.644-5.6445 12.428-10.087 20.353-13.329 7.9248-3.2422 16.69-4.8633 26.297-4.8633 9.3662 0 17.892 1.6211 25.576 4.8633s14.349 7.6846 19.993 13.329c5.6436 5.6436 10.026 12.428 13.148 20.353 3.1211 7.9248 4.6826 16.57 4.6826 25.937 0 9.8467-1.6211 19.032-4.8633 27.558-3.2412 8.5254-8.1045 16.03-14.589 22.515 7.6846 7.2041 13.449 16.03 17.291 26.477s5.7637 21.674 5.7637 33.682zm-37.464-110.23c0-8.8857-2.8213-16.21-8.4658-21.974-5.6436-5.7637-12.668-8.6455-21.073-8.6455-8.8857 0-16.21 2.8818-21.974 8.6455s-8.6455 13.088-8.6455 21.974c0 9.8467 2.8818 17.651 8.6455 23.415s13.088 8.6455 21.974 8.6455c8.4053 0 15.43-2.8818 21.073-8.6455 5.6445-5.7637 8.4658-13.568 8.4658-23.415zm4.3232 110.23c0-13.208-3.1221-23.715-9.3662-31.52-6.2441-7.8057-14.409-11.708-24.496-11.708-10.086 0-18.252 3.9023-24.496 11.708-6.2441 7.8047-9.3662 18.312-9.3662 31.52 0 12.248 3.1221 22.215 9.3662 29.898 6.2437 7.6855 14.409 11.528 24.496 11.528 10.087 0 18.252-3.8428 24.496-11.528 6.2441-7.6836 9.3662-17.65 9.3662-29.898z"></path> <path d="m603.34 230.68c-10.808 12.248-20.413 26.117-28.818 41.606s-15.97 32.961-22.694 52.414c-6.4844 18.491-11.168 36.562-14.049 54.215-2.8818 17.651-4.8037 37.403-5.7637 59.258h-33.862v-5.0439c0-6.0029 0.36035-12.968 1.0811-20.893 0.7207-7.9258 1.7402-16.15 3.0615-24.676s2.8223-17.171 4.5029-25.937c1.6816-8.7656 3.6025-17.111 5.7637-25.036 2.6416-9.6064 5.4629-18.792 8.4648-27.558 3.002-8.7666 6.3652-17.352 10.087-25.757 3.7236-8.4053 7.8652-16.871 12.429-25.396 4.5625-8.5254 9.8457-17.591 15.85-27.197h-90.778v-33.861h134.73v33.861z"></path> </g> </svg> 