<?xml version="1.0" encoding="UTF-8" standalone="no"?> <svg xmlns:dc="http://purl.org/dc/elements/1.1/" xmlns:cc="http://web.resource.org/cc/" xmlns:rdf="http://www.w3.org/1999/02/22-rdf-syntax-ns#" xmlns:svg="http://www.w3.org/2000/svg" xmlns="http://www.w3.org/2000/svg" xmlns:sodipodi="http://sodipodi.sourceforge.net/DTD/sodipodi-0.dtd" xmlns:inkscape="http://www.inkscape.org/namespaces/inkscape" id="svg2" sodipodi:version="0.32" inkscape:version="0.45.1" width="300.00186" height="300.00186" version="1.0" sodipodi:docbase="C:\Users\Emil\Desktop\Matté's Work\Pix\svg" sodipodi:docname="NYS_Thruway_Sign.svg" inkscape:output_extension="org.inkscape.output.svg.inkscape"><metadata id="metadata7"></metadata><defs id="defs5"></defs><path sodipodi:type="arc" style="opacity:1;fill:#0000b5;fill-opacity:1;stroke:none;stroke-width:1;stroke-opacity:1" id="path3152" sodipodi:cx="149.62593" sodipodi:cy="149.44827" sodipodi:rx="149.62593" sodipodi:ry="149.62593" d="M 299.25186 149.44827 A 149.62593 149.62593 0 1 1 0,149.44827 A 149.62593 149.62593 0 1 1 299.25186 149.44827 z" transform="matrix(1.0025063,0,0,1.0025063,0,0.1781033)"></path><path style="fill:#ffffff;fill-opacity:1" d="M 213.02723,211.19471 C 209.16115,210.95281 207.89302,211.4133 204.08139,214.44312 C 197.65333,219.55273 197.24769,218.79223 203.28234,212.94508 C 207.047,209.29739 208.18846,207.59376 207.39762,206.80292 C 205.96386,205.36916 199.21446,209.51175 198.60887,211.89486 C 197.87815,211.18262 197.88332,211.22594 196.54194,208.46905 C 194.70983,204.70355 194.25262,202.52125 194.70412,199.69712 C 195.22068,196.46607 195.03863,195.93772 193.40885,195.93772 C 191.17844,195.93772 181.71669,200.49556 180.23107,202.28561 C 178.70982,204.11861 179.96508,205.34796 186.28693,208.21647 C 191.38488,210.52963 192.01488,211.15067 192.30197,214.14593 C 192.55606,216.79685 193.12022,217.56195 195.01878,217.83037 C 197.41491,218.16913 197.41491,218.16913 195.01878,219.35736 C 192.06015,220.82452 191.03076,226.01291 193.69831,226.01291 C 195.61329,226.01291 204.49402,220.84404 207.82143,217.7928 C 209.86726,216.26334 210.02745,216.17527 210.27684,216.05058 C 210.45812,215.95994 210.80833,215.92036 210.95451,215.89112 C 211.37121,215.80778 211.84403,215.8114 212.26999,215.8114 C 212.56387,215.8114 216.01263,212.48487 215.97724,212.34333 C 215.94379,212.20951 215.66883,211.9725 215.57861,211.90483 C 215.41044,211.77871 215.111,211.6764 214.98067,211.54607 C 214.84017,211.40557 214.59019,211.39455 214.38272,211.34675 C 213.637,211.17494 213.27268,211.30592 213.02723,211.19471 z M 65.805605,184.96883 C 65.805605,184.29412 70.504803,184.14027 79.590066,184.51753 C 87.171519,184.83235 109.49156,185.38782 129.19016,185.75192 C 165.00577,186.41391 165.00577,186.41391 167.91147,189.5962 C 169.50959,191.34645 171.10753,194.32628 171.46242,196.21804 C 172.46007,201.53597 175.43232,202.31305 181.59507,198.86715 C 184.35197,197.32565 188.72404,195.53788 191.31078,194.89433 C 195.65431,193.81373 196.13181,193.37841 197.55496,189.20166 C 198.40252,186.71424 199.6095,181.0082 200.23715,176.52158 C 201.7365,165.80372 200.25345,161.6685 193.90963,158.87848 C 189.93659,157.13113 150.09372,148.81993 145.69019,148.81993 C 144.61892,148.81993 140.68462,149.92295 136.94729,151.27107 C 130.35365,153.64953 129.57508,153.70451 110.69048,153.12538 C 97.658918,152.72574 90.589615,152.88283 89.294156,153.60086 C 88.230096,154.19062 86.23167,156.85243 84.853224,159.51597 C 82.948161,163.19709 81.024322,165.12336 76.833174,167.54614 C 73.800592,169.2992 69.581324,172.11673 67.457003,173.80733 C 65.332693,175.49792 63.266066,176.67807 62.864502,176.42989 M 155.98109,290.56286 C 159.09237,287.94489 159.09237,287.94489 158.8149,273.77088 C 158.53743,259.59687 158.53743,259.59687 156.03117,259.59687 C 153.5249,259.59687 153.5249,259.59687 153.24191,272.06447 C 153.08095,279.15631 152.4877,285.09987 151.86603,285.84893 C 150.43306,287.57555 146.88361,287.52639 144.44334,285.74611 C 142.75277,284.51277 142.43155,282.70346 141.99609,271.96165 C 141.49483,259.59687 141.49483,259.59687 135.22917,259.2984 C 128.96351,258.99995 128.96351,258.99995 128.96351,270.67572 C 128.96351,279.25292 129.38496,283.23963 130.55158,285.6981 C 132.77932,290.39273 138.786,293.17903 146.68107,293.18004 C 151.89086,293.18071 153.36196,292.76671 155.98109,290.56286 z M 189.48509,286.76457 C 194.92601,284.35833 194.92601,284.35833 193.5075,277.59113 C 192.72731,273.86918 192.2586,270.65431 192.46592,270.44698 C 192.67325,270.23966 194.72523,272.56319 197.02589,275.61039 C 199.32654,278.65759 201.58525,281.15075 202.04524,281.15075 C 204.3773,281.15075 213.17402,276.69192 213.17402,275.50986 C 213.17402,273.96331 208.34555,248.52212 207.5298,245.77051 C 207.14155,244.4609 206.40806,244.15192 204.82249,244.63005 C 201.23371,245.71229 201.09959,246.32878 202.66872,254.5299 C 203.49817,258.86504 204.02061,262.56816 203.8297,262.75906 C 203.63879,262.94997 201.82236,260.73763 199.79318,257.84275 C 192.95668,248.0896 194.15834,248.7079 187.74546,251.64381 C 184.63844,253.06625 182.09633,254.62013 182.09633,255.09687 C 182.09633,255.57362 182.79425,258.97308 183.64728,262.65123 C 184.5003,266.3294 185.06061,269.75164 184.89241,270.25624 C 184.72421,270.76084 182.24073,268.03894 179.37356,264.20759 C 174.16053,257.24151 174.16053,257.24151 168.59725,259.42169 C 165.40322,260.67341 163.2229,262.09832 163.47759,262.76759 C 164.23918,264.7689 182.55817,289.12194 183.32088,289.14702 C 183.71868,289.1601 186.49259,288.088 189.48509,286.76457 z M 114.56698,274.493 C 114.13786,271.67543 114.38968,271.28356 116.95966,270.76957 C 120.30307,270.10089 122.11205,267.2551 122.24825,262.44985 C 122.39159,257.39335 118.99003,254.69909 106.07136,249.63666 C 94.772261,245.20889 94.772261,245.20889 93.724612,247.8916 C 91.024883,254.80485 83.746286,276.36213 84.031319,276.60059 C 84.20768,276.74814 86.912121,277.81329 90.041194,278.9676 C 95.730417,281.06635 95.730417,281.06635 98.053244,274.58959 C 99.330787,271.02737 100.83079,268.26994 101.38656,268.46196 C 101.94296,268.65418 102.39708,272.14119 102.39708,276.22113 C 102.39708,283.63118 102.39708,283.63118 107.91087,285.83833 C 113.42465,288.04548 113.42465,288.04548 114.23561,282.84372 C 114.68163,279.98276 114.83075,276.22494 114.56698,274.493 z M 103.99149,262.20147 C 102.82025,261.44253 102.79358,260.76626 103.83569,258.2504 C 104.97901,255.4902 105.31607,255.31663 107.55335,256.336 C 109.38982,257.17275 109.93774,258.10962 109.71416,260.03069 C 109.39368,262.78436 106.55363,263.86167 103.99149,262.20147 z M 236.20017,263.82225 C 236.21749,263.38932 235.48196,261.8909 234.56565,260.49244 C 232.93831,258.00881 232.98261,257.8668 236.47391,254.37551 C 240.04818,250.80124 240.04818,250.80124 243.1824,253.03301 C 246.31664,255.26478 246.31664,255.26478 250.54733,251.477 C 252.87422,249.39372 254.90805,247.38441 255.06695,247.01186 C 255.22586,246.63931 248.9967,242.2097 241.22437,237.16828 C 227.09285,228.00204 227.09285,228.00204 221.19592,233.19274 C 215.29898,238.38343 215.29898,238.38343 219.26583,245.48138 C 221.44761,249.38525 225.09962,256.04384 227.38143,260.27824 C 231.51977,267.95785 231.53599,267.97294 233.84941,266.29328 C 235.125,265.36714 236.18283,264.25518 236.20017,263.82225 z M 226.88795,246.48346 C 225.42243,243.49533 224.47554,241.0505 224.78374,241.0505 C 225.80557,241.0505 234.22723,247.14888 234.19515,247.86558 C 234.17782,248.25263 233.12614,249.3224 231.85808,250.24286 C 229.57594,251.89942 229.52546,251.86125 226.88795,246.48346 z M 78.850958,253.58183 C 83.940542,247.51667 88.309394,242.02757 88.559519,241.38384 C 89.013825,240.21462 82.117093,233.1089 80.478156,233.05758 C 80.001695,233.04266 77.891991,234.94775 75.789916,237.2911 C 71.967971,241.55176 71.967971,241.55176 69.915861,239.54546 C 67.86375,237.53917 67.86375,237.53917 71.345956,233.13871 C 73.261174,230.71846 74.828161,228.40497 74.828161,227.9976 C 74.828161,227.59024 72.783439,225.58144 70.284322,223.53361 C 65.740482,219.81027 65.740482,219.81027 63.890738,222.15971 C 62.873374,223.45191 58.376753,229.0094 53.898237,234.50971 C 49.419721,240.01002 45.75548,244.76809 45.75548,245.08319 C 45.75548,245.3983 47.5914,247.4394 49.83531,249.61897 C 53.915129,253.58183 53.915129,253.58183 58.797906,248.06805 C 63.680683,242.55426 63.680683,242.55426 65.736312,244.57778 C 67.791931,246.60129 67.791931,246.60129 63.275249,252.09658 C 58.758578,257.59186 58.758578,257.59186 63.535229,261.77259 C 66.162387,264.072 68.601064,265.65094 68.954517,265.28136 C 69.307981,264.91179 73.761374,259.64699 78.850958,253.58183 z M 209.89421,81.266618 C 207.02448,81.266618 199.82618,83.269857 198.33727,84.021938 C 196.84836,84.774028 193.14896,85.704735 190.11638,86.090188 C 183.61656,86.916344 173.38494,90.117446 171.14422,92.025897 C 170.27565,92.765667 166.9508,94.839004 163.75567,96.6333 C 159.4859,99.031094 157.80488,100.59998 157.41255,102.55329 C 156.64832,106.35818 155.08031,108.14114 150.39723,110.53026 C 145.13565,113.21453 139.99108,117.53148 139.99108,119.26234 C 139.99108,120.00038 141.18504,121.5434 142.64433,122.69128 C 145.042,124.57728 145.15324,124.94642 143.79922,126.52344 C 142.97512,127.48325 142.03458,129.02228 141.70915,129.94352 C 141.38372,130.86475 138.47321,133.41416 135.24136,135.60887 C 130.49683,138.83081 127.88952,139.82296 121.70198,140.76088 C 115.03289,141.7718 113.7178,141.71225 111.56529,140.30187 C 109.48492,138.93876 106.60547,138.7412 93.444051,139.05855 C 74.018096,139.52696 73.257114,139.99717 80.853515,146.83825 C 85.447028,150.97504 86.771379,151.67478 88.863249,151.07038 C 91.572181,150.28772 109.22117,150.15634 122.94847,150.81667 C 130.60918,151.18518 132.08729,150.94621 137.5842,148.45045 C 143.69862,145.67434 143.69862,145.67434 155.6293,148.16794 C 162.19118,149.53942 171.15921,151.19591 175.55824,151.84904 C 192.25307,154.32773 202.19988,159.2592 203.62903,165.76607 C 204.28639,168.75907 207.57998,170.87507 211.58124,170.87507 C 213.41962,170.87507 214.27303,169.90912 215.6727,166.24413 C 217.30424,161.97201 217.31821,161.35512 215.85301,158.28255 C 214.4054,155.24688 214.40453,154.21427 215.84318,146.62276 C 217.55918,137.56782 217.24366,125.11758 215.18466,120.63808 C 214.19274,118.4801 214.2799,117.44278 215.68073,114.73386 C 217.038,112.10919 217.21572,110.3152 216.56347,105.82298 C 215.63609,99.435876 216.29141,90.417742 217.50531,89.140128 M 207.40961,203.18025 C 208.37452,202.33421 209.164,200.38618 209.164,198.8513 C 209.164,196.30554 208.76138,196.0002 204.57735,195.37276 C 199.11218,194.55321 198.18352,195.2646 197.07446,201.12025 C 195.9847,206.87407 197.86615,208.66051 202.52994,206.30019 C 204.24885,205.43025 206.4447,204.02628 207.40961,203.18025 z M 210.1665,192.37916 C 210.1665,191.52472 210.83939,189.52441 211.6618,187.93402 C 212.74796,185.83363 212.98686,183.41365 212.53492,179.08975 C 211.93354,173.33595 211.79431,173.10072 208.36795,172.04913 C 203.86241,170.66634 203.16216,171.15031 203.09116,175.69614 C 203.05939,177.73127 202.2378,182.44696 201.26542,186.17547 C 200.29305,189.90398 199.71755,193.17465 199.98654,193.44364 C 200.25553,193.71263 202.65606,193.93271 205.32106,193.93271 C 209.0288,193.93271 210.1665,193.56794 210.1665,192.37916 z M 73.747199,167.54885 C 79.098076,164.81208 81.469525,161.76904 82.720592,156.03419 C 83.553244,152.21732 83.396863,151.41161 81.364823,149.04923 C 79.402216,146.76756 78.835279,146.57183 77.470317,147.70464 C 76.293134,148.68162 76.131038,149.51298 76.854246,150.8643 C 77.394036,151.87291 77.83568,153.42376 77.83568,154.31061 C 77.83568,156.27704 70.218798,166.77326 68.241054,167.53219 C 66.87967,168.0546 67.183931,169.90293 68.621665,169.84432 C 69.002658,169.82879 71.309154,168.79583 73.747199,167.54885 z M 268.3129,229.34307 C 271.26739,224.16995 271.26739,224.16995 265.72716,221.04324 C 261.45612,218.63281 258.77377,215.97318 254.01816,209.43339 C 250.62533,204.76767 247.48136,200.95025 247.03156,200.95025 C 246.58176,200.95025 245.69421,202.0905 245.05922,203.48415 C 244.04742,205.70481 244.29793,206.57593 247.08573,210.531 C 248.83529,213.01313 250.26675,215.27873 250.26675,215.56568 C 250.26675,215.85263 247.62968,215.78906 244.4066,215.42441 C 238.54644,214.76141 238.54644,214.76141 235.35916,219.94139 C 233.60617,222.79038 232.4018,225.49337 232.6828,225.94804 C 232.9638,226.4027 237.41525,227.0912 242.57492,227.47804 C 250.68896,228.08637 252.75611,228.63995 257.87837,231.57624 C 261.13558,233.44341 264.15109,234.86875 264.57949,234.74365 C 265.0079,234.61854 266.68793,232.18829 268.3129,229.34307 z M 54.569555,211.98416 C 54.959911,211.98765 56.047781,213.34103 56.987049,214.99168 C 58.838177,218.24481 60.873104,218.80856 62.722207,216.58054 C 63.65572,215.45573 62.526938,212.85368 57.177324,203.79858 C 47.481395,187.38663 48.470989,188.52472 45.786457,190.69852 C 43.532643,192.52355 43.532643,192.52355 45.642818,195.98502 C 46.80342,197.88883 47.754688,199.74643 47.756753,200.11303 C 47.758808,200.47963 26.442899,214.60301 26.151621,215.07431 C 25.860342,215.54561 26.39137,217.18456 27.331671,218.71642 C 28.271971,220.24829 29.645906,222.50356 30.384864,223.72812 C 31.723139,225.94585 31.771931,225.92712 42.794127,218.96621 C 48.880262,215.1226 54.179209,211.98068 54.569555,211.98416 z M 45.720212,121.81816 C 46.290989,120.75166 46.757986,119.50252 46.757986,119.04232 C 46.757986,118.58211 43.361064,116.90864 39.209265,115.32349 C 35.057465,113.73833 31.459621,112.11629 31.214037,111.71895 C 30.968463,111.32159 33.801485,110.69132 37.509636,110.31832 C 41.217786,109.94534 45.904693,109.3816 47.924984,109.06557 C 51.736021,108.46941 51.518377,108.77611 56.416332,97.099916 C 56.68346,96.463104 50.523811,93.557777 41.666417,90.14283 C 27.074708,84.517035 26.401896,84.355672 25.079079,86.164724 C 22.764984,89.329446 21.965225,88.741316 37.234177,95.103475 C 40.542447,96.481931 42.560693,97.628297 41.719159,97.650944 C 39.202688,97.718653 23.37143,99.67755 20.986718,100.2163 C 18.931521,100.6806 14.657425,108.06989 14.689806,111.10276 C 14.69916,111.97846 40.782718,123.15433 43.965826,123.64647 C 44.359961,123.70742 45.149435,122.88467 45.720212,121.81816 z M 259.94261,107.5659 C 268.1566,99.394593 268.1566,99.394593 274.28191,101.68531 C 277.65084,102.9452 280.67205,103.71122 280.9957,103.38756 C 281.31935,103.0639 280.74076,101.36191 279.70992,99.60537 C 278.22868,97.08133 276.16448,95.776398 269.86559,93.382028 C 261.8955,90.352394 261.8955,90.352394 267.1087,87.799872 C 269.97596,86.395983 272.32189,84.676023 272.32189,83.977747 C 272.32189,82.231291 268.07616,73.631955 267.21389,73.631955 C 266.04004,73.631955 238.23668,87.595311 238.23668,88.184845 C 238.23668,89.191622 243.27365,98.694613 243.80728,98.694613 C 244.09566,98.694613 246.10016,97.792357 248.26174,96.689601 C 255.24892,93.125005 256.18693,94.195461 250.83635,99.627736 C 245.96754,104.57088 245.96754,104.57088 248.23358,110.15405 C 249.47991,113.22479 250.77615,115.73722 251.11413,115.73722 C 251.45211,115.73722 255.42493,112.06013 259.94261,107.5659 z M 68.562497,80.192215 C 73.111369,75.066091 76.833174,70.473679 76.833174,69.986856 C 76.833174,69.500033 75.873665,68.502497 74.700923,67.77011 C 72.735971,66.542977 72.218056,66.839309 68.099941,71.546939 C 63.631199,76.65538 63.631199,76.65538 60.708382,74.57415 C 57.02339,71.950205 57.047911,70.97969 60.89965,67.005706 C 64.013745,63.792776 64.013745,63.792776 61.372362,62.062071 C 58.750267,60.344013 58.70737,60.358618 55.501375,64.060896 C 52.271771,67.790426 52.271771,67.790426 49.850778,65.207403 C 47.429776,62.624381 47.429776,62.624381 51.73945,57.513363 C 56.006237,52.453205 56.029756,52.382972 54.102237,50.455453 C 52.174718,48.527934 52.071129,48.604002 43.692252,58.099677 C 39.037555,63.374791 35.229164,68.102923 35.229164,68.606639 C 35.229164,69.571006 58.766056,89.729747 59.73149,89.592243 C 60.03967,89.548353 64.013625,85.318339 68.562497,80.192215 z M 238.32413,75.386341 C 241.59066,68.462764 241.90117,68.13259 244.87335,68.42231 C 247.36191,68.664887 248.54804,68.067357 250.73336,65.470252 C 255.30319,60.039309 254.05693,56.883604 242.95969,45.786361 C 233.59174,36.418416 233.59174,36.418416 222.24307,48.65215 C 210.8944,60.885883 210.8944,60.885883 215.66906,65.461535 C 220.44371,70.037186 220.44371,70.037186 225.25616,64.5664 C 229.06825,60.232818 230.20214,59.43858 230.71103,60.74553 C 231.08042,61.694184 230.0762,64.925711 228.34833,68.348608 C 225.34317,74.301772 225.34317,74.301772 229.51955,78.478141 C 231.81655,80.775141 233.96571,82.654509 234.29547,82.654509 C 234.62521,82.654509 236.43811,79.383834 238.32413,75.386341 z M 235.88728,56.762692 C 234.3341,55.046443 234.38563,54.784485 236.70503,52.605525 C 238.75849,50.676397 239.44172,50.496901 240.71355,51.552427 C 242.55053,53.076983 242.70078,55.734271 241.0437,57.391353 C 239.35585,59.079202 237.81353,58.891165 235.88728,56.762692 z M 95.393063,52.882738 C 92.497474,41.491921 92.379439,41.75656 97.503068,48.151962 C 100.11649,51.414078 102.4048,54.276304 102.58821,54.512462 C 102.77161,54.748621 105.61227,53.655852 108.90079,52.084086 C 113.85797,49.714766 114.7974,48.87033 114.39718,47.143429 C 109.94061,27.913468 107.76315,18.759705 107.39498,17.707174 C 107.0374,16.684908 106.34517,16.728848 104.04168,17.920026 C 101.13899,19.42107 101.13899,19.42107 102.54178,25.223255 C 105.59334,37.844969 105.6871,37.653081 99.9519,30.524186 C 97.068602,26.940226 94.247088,23.841087 93.681865,23.637212 C 91.832001,22.969966 82.847479,27.791963 82.865394,29.442419 C 82.874848,30.31308 83.732121,34.296116 84.770447,38.293609 C 85.808773,42.291103 86.528913,45.56178 86.370768,45.56178 C 86.212612,45.56178 83.526026,42.436131 80.400572,38.615893 C 74.717926,31.670007 74.717926,31.670007 69.705966,33.992084 C 66.949384,35.269227 64.439129,36.569027 64.12763,36.880529 C 63.816131,37.19203 68.393475,43.31843 74.29951,50.49475 C 85.037755,63.542606 85.037755,63.542606 90.827369,60.620018 C 96.616983,57.697431 96.616983,57.697431 95.393063,52.882738 z M 206.59637,53.028597 C 209.58512,51.070292 216.57459,35.196385 215.78183,32.167337 C 214.49177,27.238117 211.18759,23.672414 205.08338,20.622105 C 193.75633,14.961915 189.25265,16.801465 184.09289,29.195765 C 179.16966,41.021887 181.1579,46.426975 192.51274,52.08533 C 198.25262,54.945631 203.16815,55.274854 206.59637,53.028597 z M 193.15131,45.093556 C 192.07354,43.794928 192.40734,42.250367 195.16462,35.777377 C 198.95931,26.868976 200.35645,24.99495 202.56997,25.844357 C 204.89006,26.734661 204.53826,29.149093 200.78918,38.066052 C 197.38197,46.169863 195.48959,47.911016 193.15131,45.093556 z M 164.5746,39.797369 C 164.91244,37.7297 165.43187,34.684587 165.72888,33.030452 C 166.02589,31.376316 168.70225,26.139485 171.67635,21.39305 C 174.65044,16.646614 177.0838,12.473682 177.0838,12.119867 C 177.0838,11.766052 175.52387,11.476567 173.61728,11.476567 C 170.56881,11.476567 169.83194,12.020623 167.50686,15.988059 C 166.05271,18.469379 164.51663,20.285512 164.09335,20.023909 C 163.67006,19.762306 162.74885,17.49495 162.0462,14.985339 C 161.34356,12.475728 160.35394,10.166098 159.84706,9.8528267 C 159.34018,9.539556 156.46973,8.9499941 153.46829,8.5426899 C 146.93799,7.6565085 147.00777,7.3958648 150.61196,19.212198 C 152.94004,26.84478 153.11043,28.437058 152.23668,34.394768 C 151.69982,38.055422 151.3876,41.194373 151.54285,41.370216 C 151.80189,41.663592 159.92685,43.162958 162.75266,43.438853 C 163.41689,43.503707 164.23677,41.865038 164.5746,39.797369 z " id="path2161" sodipodi:nodetypes="cssscssssssssscsssssssscssssssssssccssssscssssssssssscccsssssssssssccsssccsssssssssscccsscccssssssssssscsssccssssssssssssssssscssssssssssscssssccsssssssccsccssssccsssssssscsssccssscsssssssccsssscsssssssccsscssssssssssccsscssssssssssccsscsssssssccssscccssssssssssscssssccssssccsssccsssssscsssssccssccsssssssssssssc"></path><path sodipodi:type="arc" style="opacity:1;fill:none;fill-opacity:1;stroke:#ffffff;stroke-width:6.48766899;stroke-miterlimit:4;stroke-dasharray:none;stroke-opacity:1" id="path8970" sodipodi:cx="80.236908" sodipodi:cy="81.735031" sodipodi:rx="80.61097" sodipodi:ry="82.4813" d="M 160.84788 81.735031 A 80.61097 82.4813 0 1 1 -0.37406158,81.735031 A 80.61097 82.4813 0 1 1 160.84788 81.735031 z" transform="matrix(1.1693735,0,0,1.1428571,56.173078,56.590402)"></path></svg> 